<!--?xml version="1.0" standalone="no"?-->
              <svg id="sw-js-blob-svg" viewBox="0 0 100 100" xmlns="http://www.w3.org/2000/svg" version="1.1">
                    <defs> 
                        <linearGradient id="sw-gradient" x1="0" x2="1" y1="1" y2="0">
                            <stop id="stop1" stop-color="rgba(216, 66.309, 0, 1)" offset="0%"></stop>
                            <stop id="stop2" stop-color="rgba(216, 132.161, 0, 1)" offset="100%"></stop>
                        </linearGradient>
                    </defs>
                <path fill="url(#sw-gradient)" d="M21.1,-29.3C27.1,-24.7,31.4,-18.2,35.3,-10.5C39.2,-2.8,42.6,6.1,40.6,13.4C38.5,20.7,31,26.5,23.3,30.4C15.6,34.3,7.8,36.3,-0.7,37.2C-9.2,38.1,-18.3,38,-25.3,33.8C-32.2,29.7,-37,21.6,-39,13.2C-41,4.8,-40.2,-4,-37.5,-12.1C-34.8,-20.2,-30.1,-27.6,-23.5,-31.9C-16.9,-36.3,-8.5,-37.6,-0.4,-37C7.6,-36.4,15.2,-33.8,21.1,-29.3Z" width="100%" height="100%" transform="translate(50 50)" stroke-width="0" style="transition: all 0.3s ease 0s;"></path>
              </svg>