<!--?xml version="1.0" standalone="no"?-->
              <svg id="sw-js-blob-svg" viewBox="0 0 100 100" xmlns="http://www.w3.org/2000/svg" version="1.1">
                    <defs> 
                        <linearGradient id="sw-gradient" x1="0" x2="1" y1="1" y2="0">
                            <stop id="stop1" stop-color="rgba(216, 66.309, 0, 1)" offset="0%"></stop>
                            <stop id="stop2" stop-color="rgba(216, 132.161, 0, 1)" offset="100%"></stop>
                        </linearGradient>
                    </defs>
                <path fill="url(#sw-gradient)" d="M26.7,-35.3C34.1,-31.4,39.3,-22.9,40.7,-14.3C42,-5.6,39.5,3.2,36.3,11.4C33.1,19.6,29.2,27.2,23.1,32.7C16.9,38.2,8.4,41.6,-0.4,42.2C-9.2,42.7,-18.5,40.5,-26.3,35.5C-34.1,30.5,-40.5,22.9,-43.1,14.1C-45.8,5.4,-44.7,-4.4,-40.8,-12.3C-37,-20.3,-30.3,-26.4,-23,-30.3C-15.7,-34.3,-7.9,-36.1,0.9,-37.3C9.6,-38.6,19.3,-39.2,26.7,-35.3Z" width="100%" height="100%" transform="translate(50 50)" stroke-width="0" style="transition: all 0.3s ease 0s;"></path>
              </svg>