<!--?xml version="1.0" standalone="no"?-->
              <svg id="sw-js-blob-svg" viewBox="0 0 100 100" xmlns="http://www.w3.org/2000/svg" version="1.1">
                    <defs> 
                        <linearGradient id="sw-gradient" x1="0" x2="1" y1="1" y2="0">
                            <stop id="stop1" stop-color="rgba(216, 66.309, 0, 1)" offset="0%"></stop>
                            <stop id="stop2" stop-color="rgba(216, 132.161, 0, 1)" offset="100%"></stop>
                        </linearGradient>
                    </defs>
                <path fill="url(#sw-gradient)" d="M23.1,-31.4C30.4,-26.6,36.8,-20.3,39.8,-12.6C42.8,-4.9,42.2,4.3,39.8,13.3C37.4,22.2,33.1,30.9,26.1,36.1C19.2,41.4,9.6,43.1,0.5,42.5C-8.6,41.8,-17.2,38.6,-23.8,33.3C-30.3,27.9,-34.8,20.4,-38.4,11.9C-41.9,3.4,-44.5,-5.9,-42.7,-14.6C-40.9,-23.2,-34.6,-31.2,-26.8,-35.7C-19,-40.3,-9.5,-41.4,-0.8,-40.4C8,-39.3,15.9,-36.1,23.1,-31.4Z" width="100%" height="100%" transform="translate(50 50)" stroke-width="0" style="transition: all 0.3s ease 0s;"></path>
              </svg>