<!--?xml version="1.0" standalone="no"?-->
              <svg id="sw-js-blob-svg" viewBox="0 0 100 100" xmlns="http://www.w3.org/2000/svg" version="1.1">
                    <defs> 
                        <linearGradient id="sw-gradient" x1="0" x2="1" y1="1" y2="0">
                            <stop id="stop1" stop-color="rgba(216, 66.309, 0, 1)" offset="0%"></stop>
                            <stop id="stop2" stop-color="rgba(216, 132.161, 0, 1)" offset="100%"></stop>
                        </linearGradient>
                    </defs>
                <path fill="url(#sw-gradient)" d="M21,-30.2C27,-24.6,31.4,-18.1,34.5,-10.7C37.7,-3.2,39.6,5.1,38.4,13.6C37.2,22,32.8,30.5,25.8,35.3C18.9,40,9.5,40.9,0.3,40.5C-8.8,40,-17.6,38.1,-24.7,33.5C-31.9,28.8,-37.4,21.4,-40.1,13C-42.7,4.7,-42.5,-4.5,-39.2,-12.1C-35.9,-19.7,-29.5,-25.7,-22.4,-31C-15.4,-36.2,-7.7,-40.7,-0.1,-40.5C7.5,-40.4,15.1,-35.8,21,-30.2Z" width="100%" height="100%" transform="translate(50 50)" stroke-width="0" style="transition: all 0.3s ease 0s;"></path>
              </svg>