<!--?xml version="1.0" standalone="no"?-->
              <svg id="sw-js-blob-svg" viewBox="0 0 100 100" xmlns="http://www.w3.org/2000/svg" version="1.1">
                    <defs> 
                        <linearGradient id="sw-gradient" x1="0" x2="1" y1="1" y2="0">
                            <stop id="stop1" stop-color="rgba(216, 66.309, 0, 1)" offset="0%"></stop>
                            <stop id="stop2" stop-color="rgba(216, 132.161, 0, 1)" offset="100%"></stop>
                        </linearGradient>
                    </defs>
                <path fill="url(#sw-gradient)" d="M24.9,-32.9C32.6,-28.6,39.5,-21.8,43.1,-13.4C46.6,-5,46.8,5.2,43,13.1C39.2,21,31.4,26.8,23.6,31.6C15.8,36.3,7.9,40.1,0.2,39.8C-7.4,39.5,-14.8,35.1,-21.4,29.9C-28,24.7,-33.8,18.8,-37.2,11.3C-40.6,3.9,-41.7,-5,-39.3,-13C-37,-21,-31.3,-28.1,-24.1,-32.5C-17,-37,-8.5,-38.8,0,-38.9C8.6,-38.9,17.1,-37.1,24.9,-32.9Z" width="100%" height="100%" transform="translate(50 50)" stroke-width="0" style="transition: all 0.3s ease 0s;"></path>
              </svg>